<svg width="158" height="38" viewBox="0 0 158 38" fill="none" xmlns="http://www.w3.org/2000/svg">
<path d="M111.599 10.1606V12.4676H114.024C115.083 12.4676 115.779 13.088 116.175 13.4891C116.493 13.8193 123.478 21.1749 123.646 21.3684C123.813 21.5619 123.813 21.5641 123.813 21.6868V25.3318C123.813 25.4989 123.795 25.6655 123.76 25.8294C123.71 25.9352 123.636 26.0297 123.543 26.1063C123.45 26.183 123.34 26.2399 123.221 26.2731C122.992 26.2998 122.761 26.3133 122.531 26.3132L120.102 26.3104V28.6174H133.722V26.3104H131.159C130.929 26.3115 130.7 26.2979 130.473 26.2699C130.354 26.237 130.245 26.1802 130.152 26.1036C130.059 26.027 129.986 25.9324 129.937 25.8266C129.901 25.6628 129.883 25.4961 129.881 25.329V21.6863C129.866 21.5666 129.899 21.4459 129.973 21.3467L137.529 13.3403C138.223 12.6231 138.583 12.4671 139.493 12.4671H142V10.1602H130.776V12.4625H132.469C132.56 12.4575 132.651 12.4767 132.73 12.518C132.81 12.5592 132.874 12.6208 132.917 12.6953C132.96 12.7698 132.979 12.8542 132.972 12.9384C132.964 13.0226 132.931 13.1031 132.876 13.1702C132.841 13.2174 128.177 18.3106 128.119 18.3602C128.06 18.4097 128.022 18.3978 127.979 18.3436C127.936 18.2893 123.328 13.1703 123.328 13.1703C123.003 12.7999 123.257 12.4625 123.638 12.4625H125.289V10.1602L111.599 10.1606Z" fill="#6B6B6B"/>
<path d="M78.1953 10.1602V12.4671H80.3694C81.939 12.4671 82.0462 13.279 82.0462 13.9867V24.7839C82.0462 25.4303 82.0867 26.3173 81.0857 26.3173H78.4032V28.622H89.8567V26.3173H87.0627C85.9475 26.3173 85.8967 25.8433 85.884 24.836V15.586L101.614 28.622H105.615L105.404 13.8991C105.424 12.8234 105.495 12.4648 106.694 12.4648H109.201V10.1602H97.5167V12.4648H100.083C101.261 12.4648 101.459 12.8871 101.474 13.8991L101.614 21.6039L87.9593 10.1602H78.1953Z" fill="#6B6B6B"/>
<path d="M26.6205 9C24.1592 9 21.3627 9.42934 19.0005 10.4154C16.7958 11.3307 15 12.8003 15 15.2372C14.9967 16.5134 15.5192 17.7424 16.4605 18.6721C17.0981 19.2194 18.1269 20.1489 20.8142 20.6962C22.0157 20.9321 24.5836 21.3119 27.1414 21.5619C29.6992 21.812 32.1783 22.0338 33.1943 22.2862C34.002 22.4773 35.3607 22.7369 35.3607 24.1523C35.3607 25.5677 33.9308 25.9922 33.6819 26.0842C33.433 26.1762 31.7157 26.9075 28.6322 26.9075C26.5891 26.8549 24.5647 26.5315 22.62 25.9474C21.4694 25.5652 20.2632 25.0627 19.1379 23.7864C18.6837 23.1855 18.4316 22.4729 18.4136 21.7388H15.6196V29.0049H18.7237V28.0212C18.7232 27.9482 18.7436 27.8764 18.783 27.8132C18.8223 27.75 18.879 27.6977 18.9473 27.6616C19.0157 27.6256 19.0931 27.6071 19.1717 27.6081C19.2503 27.6091 19.3272 27.6295 19.3944 27.6673C20.8567 28.2583 22.3777 28.7149 23.9357 29.0307C25.5664 29.3468 26.6206 29.5758 28.6476 29.5758C30.7863 29.6136 32.9179 29.334 34.9618 28.7478C36.3191 28.4022 37.5925 27.8184 38.7132 27.0278C39.3437 26.5781 39.8532 25.9987 40.2018 25.3353C40.5504 24.6718 40.7286 23.9423 40.7225 23.204C40.7333 21.8014 40.1505 20.4509 39.0998 19.4434C38.5154 18.9168 37.8384 18.4869 37.098 18.1722C36.3021 17.8381 35.4758 17.5705 34.6289 17.3723C33.0186 17.0066 29.4019 16.549 27.6722 16.3886C25.8586 16.2141 22.7115 15.9709 21.4542 15.6099C21.0732 15.4991 20.2958 15.1573 20.2958 14.3198C20.2958 13.723 20.6515 13.2181 21.3525 12.81C22.4676 12.1612 24.718 11.7576 27.065 11.7576C29.3367 11.7321 31.5899 12.1408 33.6844 12.9583C34.247 13.1861 34.7762 13.4795 35.2589 13.8315C36.0461 14.4558 36.5911 15.3026 36.8107 16.2421H39.318V9.91782H36.524V10.6513C36.524 10.8872 36.27 11.1987 35.762 10.9416C34.5022 10.333 30.9614 9.01651 26.6205 9Z" fill="#6B6B6B"/>
<path d="M60.2457 9C55.8438 9 51.17 10.4153 48.5284 12.6446C47.5214 13.4961 46.7175 14.5341 46.1684 15.6916C45.6194 16.8492 45.3373 18.1006 45.3405 19.3655C45.3248 20.6356 45.601 21.8942 46.1507 23.0573C46.7005 24.2203 47.5111 25.2611 48.5284 26.11C51.3732 28.4856 55.6406 29.7596 60.2457 29.7596C64.8583 29.7596 69.2167 28.4997 71.9933 26.11C72.9801 25.2412 73.768 24.1956 74.308 23.0365C74.8485 21.8774 75.1307 20.6286 75.1373 19.3655C75.1509 18.1037 74.8781 16.8534 74.3362 15.6962C73.7944 14.539 72.9961 13.5009 71.9933 12.6496C69.0135 10.1396 65.1146 9 60.2457 9ZM60.2457 11.6986C62.6536 11.6986 64.9726 12.5033 66.5347 13.9305C68.046 15.3129 68.8357 17.2662 68.8357 19.3563C68.8357 21.5455 68.117 23.3195 66.5347 24.7821C64.9523 26.2447 62.6866 27.0278 60.2457 27.0278C57.8225 27.0278 55.5083 26.2282 53.9462 24.7821C53.1991 24.0622 52.6126 23.2122 52.2203 22.2811C51.828 21.3499 51.6377 20.356 51.6602 19.3563C51.6602 17.2756 52.44 15.3152 53.9462 13.9305C55.5083 12.4962 57.8377 11.6986 60.2457 11.6986Z" fill="#6B6B6B"/>
</svg>
